:SAMPLES-PER-SECOND 30
:FULLY-SPECIFIED
:DEGREES
89
root  11.8477 33.9979 -40.9042 -166.901 57.7206 -177.68
RightUpLeg  -27.0441 -9.13643 -0.0831448
RightLeg  2.78856 3.00266 -0.0461065
RightFoot  10.5938 -0.0112255 0.640253
RightToes  -19.0709 -0.0763403 -0.169311
Spine  -1.91372 -0.92609 -0.178538
Spine1  -3.70126 -1.68963 0.168897
HEad  -46.9367 -1.59476 0.813548
LeftShoulder1  -1.94126e-019 -3.10601e-018 -2.51263e-017
LeftArm  -18.797 4.0281 -52.5228
LeftForeArm  29.1232 -49.0083 -10.7759
LeftHand  -0.461776 0.772702 11.6181
RightShoulder  -4.96962e-017 0 -2.36833e-017
RightArm  -22.3481 -25.5919 57.3577
RightForeArm  48.6348 16.7634 1.42861
RightHand  -0.339073 -2.58429 -13.7182
LeftUpLeg  2.80351 -7.23923 1.1823
LeftLeg  11.2405 14.203 1.8632
LeftFoot  -4.06619 -0.038582 -0.925262
LeftToes  -17.93 1.87998e-006 4.79886e-008
90
root  13.5748 33.5512 -41.3656 -166.15 57.1317 -175.812
RightUpLeg  -27.2759 -9.7149 0.928046
RightLeg  7.31523 1.87751 0.120288
RightFoot  16.3695 0.000518105 0.524675
RightToes  -29.2237 -0.138612 -0.246535
Spine  -2.16683 -1.32325 0.787671
Spine1  -4.14218 -2.66659 1.92121
HEad  -46.0789 -1.23343 0.251233
LeftShoulder1  -1.94126e-019 -3.10601e-018 -2.51263e-017
LeftArm  -20.9445 4.1516 -52.424
LeftForeArm  28.6663 -52.8985 -12.6291
LeftHand  -0.444798 0.942861 11.6017
RightShoulder  -4.96962e-017 0 -2.36833e-017
RightArm  -33.8414 -26.7939 55.2157
RightForeArm  55.6529 10.4163 1.54674
RightHand  -0.251923 -3.42155 -14.2651
LeftUpLeg  4.03541 -7.09785 2.93682
LeftLeg  16.0043 13.3576 2.88689
LeftFoot  -5.55754 -0.0709647 -1.30045
LeftToes  -26.1382 1.87998e-006 4.79886e-008
91
root  15.323 33.2535 -41.5828 -162.05 57.6321 -170.69
RightUpLeg  -29.6489 -8.27222 4.31239
RightLeg  17.1979 1.28238 0.307388
RightFoot  11.5439 0.0401277 0.137769
RightToes  -24.7365 -0.109406 -0.213771
Spine  -2.53543 -1.38002 2.24274
Spine1  -4.84312 -3.04517 4.63641
HEad  -45.6534 -0.364257 -0.514376
LeftShoulder1  -1.94126e-019 -3.10601e-018 -2.51263e-017
LeftArm  -23.8894 5.91975 -53.8009
LeftForeArm  30.0277 -57.4072 -15.1373
LeftHand  -0.421753 1.17426 11.5786
RightShoulder  -4.96962e-017 0 -2.36833e-017
RightArm  -46.7966 -26.9029 52.8322
RightForeArm  65.378 3.8956 0.63668
RightHand  -0.00572487 -5.44818 -16.3592
LeftUpLeg  3.46529 -4.45854 7.18804
LeftLeg  22.8271 10.9306 3.76305
LeftFoot  -4.5509 -0.0447943 -0.965745
LeftToes  -42.531 1.87998e-006 4.79886e-008
92
root  16.9413 33.2193 -41.9283 -159.378 58.7421 -167.63
RightUpLeg  -30.909 -6.38835 6.03592
RightLeg  24.6916 0.854732 0.323083
RightFoot  6.62345 0.033481 -0.0382365
RightToes  -22.2428 -0.0943108 -0.194605
Spine  -2.82395 -1.37855 3.0069
Spine1  -5.44161 -3.12304 6.1504
HEad  -45.3446 1.40391 -1.36216
LeftShoulder1  -1.94126e-019 -3.10601e-018 -2.51263e-017
LeftArm  -27.4666 9.28352 -56.743
LeftForeArm  32.5534 -61.4406 -17.9233
LeftHand  -0.412452 1.43277 12.0355
RightShoulder  -4.96962e-017 0 -2.36833e-017
RightArm  -51.1472 -28.15 51.8453
RightForeArm  65.335 0.636411 0.0856224
RightHand  0.727512 -10.1876 -18.0025
LeftUpLeg  1.52641 -0.855893 10.0379
LeftLeg  30.7561 8.65023 4.39159
LeftFoot  1.38247 -3.24433e-005 0.164218
LeftToes  -61.2247 1.87998e-006 4.79886e-008
93
root  18.5538 33.3423 -42.4109 -160.278 58.2899 -167.578
RightUpLeg  -27.5842 -9.32112 6.87295
RightLeg  25.4069 3.09905 1.2284
RightFoot  3.19682 0.0130808 0.0633808
RightToes  -21.8001 -0.0917194 -0.191136
Spine  -2.67236 -1.83676 3.11579
Spine1  -5.20258 -4.06318 6.51247
HEad  -45.767 1.86637 -0.831982
LeftShoulder1  -1.94126e-019 -3.10601e-018 -2.51263e-017
LeftArm  -28.8344 12.5542 -60.0916
LeftForeArm  33.0362 -63.7787 -20.0701
LeftHand  -0.397695 1.91227 13.1525
RightShoulder  -4.96962e-017 0 -2.36833e-017
RightArm  -52.5879 -29.964 53.1056
RightForeArm  63.329 0.0478645 -0.00368992
RightHand  1.01832 -12.2167 -17.6125
LeftUpLeg  -1.17239 1.6768 12.0311
LeftLeg  39.8939 5.65548 4.12067
LeftFoot  10.9358 -0.10516 1.26007
LeftToes  -64.8517 1.87998e-006 4.79886e-008
94
root  20.02 33.4787 -42.9377 -162.533 56.4713 -169.04
RightUpLeg  -23.8978 -11.4286 6.46106
RightLeg  25.4137 3.13108 1.24156
RightFoot  0.365553 0.00222035 -0.0841429
RightToes  -22.2661 -0.0902543 -0.189157
Spine  -2.41639 -2.35682 2.95779
Spine1  -4.75188 -5.23232 6.3324
HEad  -46.6373 0.372146 0.268381
LeftShoulder1  -1.94126e-019 -3.10601e-018 -2.51263e-017
LeftArm  -27.0868 14.1333 -63.3728
LeftForeArm  31.2362 -63.7635 -20.2693
LeftHand  -0.3888 2.11405 13.6271
RightShoulder  -4.96962e-017 0 -2.36833e-017
RightArm  -52.6037 -31.9709 55.2699
RightForeArm  63.0302 0.539232 0.066252
RightHand  0.433746 -9.49905 -13.0444
LeftUpLeg  -5.71351 2.03208 12.8179
LeftLeg  50.2741 4.56718 4.80275
LeftFoot  18.9863 -0.315835 2.0501
LeftToes  -46.9224 1.87998e-006 4.79886e-008
